<?xml version="1.0" standalone="no"?>
<!DOCTYPE svg PUBLIC "-//W3C//DTD SVG 20010904//EN"
 "http://www.w3.org/TR/2001/REC-SVG-20010904/DTD/svg10.dtd">
<svg version="1.0" xmlns="http://www.w3.org/2000/svg"
 width="32.000000pt" height="32.000000pt" viewBox="0 0 32.000000 32.000000"
 preserveAspectRatio="xMidYMid meet">
<metadata>
Created by potrace 1.10, written by Peter Selinger 2001-2011
</metadata>
<g transform="translate(0.000000,32.000000) scale(0.100000,-0.100000)"
fill="#000000" stroke="none">
<path d="M90 285 c-41 -14 -60 -45 -60 -98 0 -79 85 -195 134 -183 59 15 115
109 116 193 l0 52 -53 26 c-59 27 -84 29 -137 10z m128 -27 l42 -12 0 -59 c0
-71 -21 -119 -66 -154 l-33 -25 -28 22 c-49 38 -73 88 -73 155 l0 60 48 16
c26 9 52 15 57 13 6 -2 29 -9 53 -16z"/>
<path d="M113 243 c-47 -16 -51 -30 -34 -107 10 -42 55 -96 81 -96 40 0 90 89
90 162 0 22 -7 28 -47 42 -26 9 -47 16 -47 15 -1 0 -20 -7 -43 -16z m82 -10
c32 -15 35 -20 35 -59 0 -44 -17 -94 -31 -94 -5 0 -16 11 -25 25 -21 33 -31
32 -36 -5 -3 -16 -1 -30 4 -30 4 0 8 10 8 23 l0 22 20 -25 c16 -21 16 -26 5
-33 -8 -4 -23 -3 -33 2 -16 8 -19 23 -21 83 -3 90 -11 104 -11 18 0 -74 -12
-72 -20 3 -5 51 -5 52 30 69 19 9 36 17 37 17 1 1 18 -7 38 -16z"/>
<path d="M165 211 c33 -7 46 -41 24 -67 -10 -12 -9 -18 7 -32 10 -9 14 -11 7
-3 -9 11 -8 19 4 38 24 37 4 73 -39 72 l-33 -1 30 -7z"/>
<path d="M140 175 c0 -18 5 -25 19 -25 23 0 34 23 18 39 -19 19 -37 12 -37
-14z"/>
</g>
</svg>
